<svg width="42" height="42" viewBox="0 0 24 24" fill="none" xmlns="http://www.w3.org/2000/svg">
<g clip-path="url(#clip0_313_488)">
<path d="M12 24C18.6274 24 24 18.6274 24 12C24 5.37258 18.6274 0 12 0C5.37258 0 0 5.37258 0 12C0 18.6274 5.37258 24 12 24Z" fill="#FEFEFE"/>
<path d="M15.8154 4H13.1571C11.5796 4 9.82498 4.66348 9.82498 6.95017C9.83268 7.74693 9.82498 8.51 9.82498 9.36879H8V12.2729H9.88145V20.6332H13.3387V12.2177H15.6206L15.8271 9.36064H13.2791C13.2791 9.36064 13.2848 8.0897 13.2791 7.72061C13.2791 6.81696 14.2194 6.86871 14.276 6.86871C14.7234 6.86871 15.5934 6.87002 15.8167 6.86871V4H15.8154Z" fill="#36393F"/>
</g>
<defs>
<clipPath id="clip0_313_488">
<rect width="24" height="24" fill="white"/>
</clipPath>
</defs>
</svg>
