<svg width="24" height="24" viewBox="0 0 24 24" fill="none" xmlns="http://www.w3.org/2000/svg">
<path d="M13.6613 15.2513C12.2819 16.2321 10.5843 16.6588 8.90505 16.4469C7.22581 16.235 5.68744 15.4 4.59484 14.1074C3.50223 12.8147 2.93512 11.1588 3.00591 9.4677C3.0767 7.77662 3.78022 6.17385 4.97703 4.97703C6.17385 3.78022 7.77662 3.0767 9.4677 3.00591C11.1588 2.93512 12.8147 3.50223 14.1074 4.59484C15.4 5.68744 16.235 7.22581 16.4469 8.90505C16.6588 10.5843 16.2321 12.2819 15.2513 13.6613L20.6708 19.0793C20.7813 19.1823 20.87 19.3065 20.9315 19.4445C20.993 19.5825 21.026 19.7315 21.0287 19.8825C21.0314 20.0336 21.0036 20.1836 20.947 20.3237C20.8904 20.4638 20.8062 20.591 20.6994 20.6979C20.5925 20.8047 20.4653 20.8889 20.3252 20.9455C20.1851 21.0021 20.0351 21.0299 19.884 21.0272C19.733 21.0245 19.584 20.9915 19.446 20.93C19.308 20.8685 19.1838 20.7798 19.0808 20.6693L13.6613 15.2513ZM14.2508 9.7493C14.2508 8.55583 13.7767 7.41123 12.9328 6.56732C12.0889 5.72341 10.9443 5.2493 9.7508 5.2493C8.55733 5.2493 7.41273 5.72341 6.56882 6.56732C5.72491 7.41123 5.2508 8.55583 5.2508 9.7493C5.2508 10.9428 5.72491 12.0874 6.56882 12.9313C7.41273 13.7752 8.55733 14.2493 9.7508 14.2493C10.9443 14.2493 12.0889 13.7752 12.9328 12.9313C13.7767 12.0874 14.2508 10.9428 14.2508 9.7493Z" fill="black"/>
</svg>
