<svg width="42" height="42" viewBox="0 0 24 24" fill="none" xmlns="http://www.w3.org/2000/svg">
<g clip-path="url(#clip0_313_494)">
<circle cx="12" cy="12" r="12" fill="#FEFEFE"/>
<path d="M15.9484 7.2002H8.65149C7.82764 7.2002 7.19995 7.82789 7.19995 8.65173V15.9487C7.19995 16.7725 7.82764 17.4002 8.65149 17.4002H15.9484C16.7723 17.4002 17.4 16.7725 17.4 15.9487V8.65173C17.4 7.82789 16.7723 7.2002 15.9484 7.2002ZM12.3 15.3602C13.9869 15.3602 15.36 14.0263 15.36 12.4179C15.36 12.1433 15.3207 11.8294 15.2423 11.594H16.1053V15.7525C16.1053 15.9487 15.9484 16.1448 15.713 16.1448H8.88688C8.69072 16.1448 8.49457 15.9879 8.49457 15.7525V11.5548H9.39688C9.31842 11.8294 9.27918 12.104 9.27918 12.3787C9.23995 14.0263 10.613 15.3602 12.3 15.3602ZM12.3 14.1833C11.2015 14.1833 10.3384 13.3202 10.3384 12.261C10.3384 11.2017 11.2015 10.3387 12.3 10.3387C13.3984 10.3387 14.2615 11.2017 14.2615 12.261C14.2615 13.3594 13.3984 14.1833 12.3 14.1833ZM16.0661 9.98558C16.0661 10.221 15.87 10.4171 15.6346 10.4171H14.5361C14.3007 10.4171 14.1046 10.221 14.1046 9.98558V8.92635C14.1046 8.69096 14.3007 8.49481 14.5361 8.49481H15.6346C15.87 8.49481 16.0661 8.69096 16.0661 8.92635V9.98558Z" fill="#36393F"/>
</g>
<defs>
<clipPath id="clip0_313_494">
<rect width="24" height="24" fill="white"/>
</clipPath>
</defs>
</svg>
