<svg width="120" height="43" viewBox="0 0 120 43" fill="none" xmlns="http://www.w3.org/2000/svg">
<path fill-rule="evenodd" clip-rule="evenodd" d="M23.8281 13.6454L20.2467 19.9724H30.2268L25.8814 27.3853H16.0446L12.4632 33.7122H19.9602L25.3084 42.4C30.8953 32.7207 36.1003 23.6552 41.8782 13.6454H23.8281ZM49.614 0H0L3.77238 6.13808C7.115 11.6151 8.64306 18.367 8.4043 26.2993L15.8536 13.1261L12.0812 6.70468H45.9849L49.614 0Z" fill="#FEFEFE"/>
<path d="M65.8018 29.935H59.2598C59.0211 29.935 58.8778 30.0766 58.8778 30.3127V39.8976C58.8778 40.1336 58.9733 40.2753 59.2598 40.2753H60.7402C60.9789 40.2753 61.1222 40.1808 61.1222 39.8976V36.4508H64.1783C64.417 36.4508 64.5603 36.3563 64.5603 36.073V34.8454C64.5603 34.6094 64.4648 34.4677 64.1783 34.4677H61.1222V31.9653H65.8018C66.0406 31.9653 66.1838 31.8236 66.1838 31.5875V30.3127C66.1361 30.0766 66.0406 29.935 65.8018 29.935ZM74.0151 39.8976L70.9113 30.3127C70.8635 30.2183 70.8158 30.1238 70.7203 30.0294C70.6247 29.9822 70.5292 29.935 70.386 29.935H68.6192C68.4759 29.935 68.3327 29.9822 68.2849 30.0294C68.1894 30.1238 68.1417 30.171 68.0939 30.3127L64.9423 39.8976C64.8945 39.992 64.8945 40.0864 64.9423 40.1809C64.9901 40.2753 65.0378 40.2753 65.1333 40.2753H66.7569C67.0434 40.2753 67.1866 40.1808 67.2821 39.8976L67.8074 38.1033H71.1023L71.6275 39.8976C71.6753 39.992 71.723 40.0864 71.8185 40.1809C71.914 40.2753 72.0095 40.2753 72.1528 40.2753H73.7764C73.8719 40.2753 73.9196 40.2281 73.9674 40.1809C74.0629 40.0864 74.0629 39.992 74.0151 39.8976ZM68.4282 36.1203L69.3832 32.8624H69.5265L70.4815 36.1203H68.4282ZM81.2734 33.429H82.7537C82.9924 33.429 83.1357 33.3345 83.1357 33.0512V32.1069C83.1357 30.596 82.3717 29.8405 80.8436 29.8405H77.3577C75.8297 29.8405 75.0657 30.596 75.0657 32.1069V38.1506C75.0657 39.6615 75.8297 40.4169 77.3577 40.4169H80.8436C82.3717 40.4169 83.1357 39.6615 83.1357 38.1506V37.2062C83.1357 36.9702 82.9924 36.8285 82.7537 36.8285H81.2734C81.0346 36.8285 80.8914 36.9229 80.8914 37.2062V37.7256C80.8914 37.9617 80.8436 38.1506 80.7004 38.245C80.5571 38.3866 80.3661 38.4338 80.1751 38.4338H78.0263C77.7875 38.4338 77.6442 38.3394 77.501 38.245C77.3577 38.1033 77.31 37.9145 77.31 37.7256V32.5318C77.31 32.2958 77.4055 32.1069 77.501 32.0125C77.6442 31.8708 77.8353 31.8236 78.0263 31.8236H80.1751C80.4138 31.8236 80.6049 31.8708 80.7004 32.0125C80.8436 32.1541 80.8914 32.343 80.8914 32.5318V33.0512C80.8914 33.2873 81.0346 33.429 81.2734 33.429ZM91.3967 29.935H84.3772C84.1385 29.935 83.9952 30.0766 83.9952 30.3127V31.5875C83.9952 31.8236 84.0907 31.9653 84.3772 31.9653H86.7648V39.8976C86.7648 40.1336 86.8603 40.2753 87.1468 40.2753H88.6271C88.8659 40.2753 89.0091 40.1808 89.0091 39.8976V31.9653H91.3967C91.6355 31.9653 91.7787 31.8236 91.7787 31.5875V30.3127C91.731 30.0766 91.6355 29.935 91.3967 29.935ZM98.5117 29.7933H94.8826C93.3546 29.7933 92.5905 30.5488 92.5905 32.0597V38.1033C92.5905 39.6143 93.3546 40.3697 94.8826 40.3697H98.5117C100.04 40.3697 100.804 39.6143 100.804 38.1033V32.1069C100.804 30.5488 100.04 29.7933 98.5117 29.7933ZM98.6072 37.6784C98.6072 37.9145 98.5117 38.1033 98.4162 38.1978C98.273 38.3394 98.082 38.3866 97.891 38.3866H95.5989C95.3601 38.3866 95.1691 38.2922 95.0736 38.1978C94.9304 38.0561 94.8826 37.8673 94.8826 37.6784V32.5318C94.8826 32.2958 94.9304 32.1069 95.0736 32.0125C95.2169 31.8708 95.4079 31.8236 95.5989 31.8236H97.891C98.1297 31.8236 98.3207 31.8708 98.4162 32.0125C98.5595 32.1541 98.6072 32.343 98.6072 32.5318V37.6784ZM110.784 39.8976L109.304 36.8757C109.59 36.8285 109.829 36.7341 110.02 36.5452C110.211 36.4036 110.354 36.2147 110.497 35.9314C110.641 35.6481 110.736 35.2704 110.736 34.751V32.2486C110.736 30.7376 109.972 29.9822 108.444 29.9822H103.335C103.096 29.9822 102.953 30.1238 102.953 30.3599V39.9448C102.953 40.1809 103.048 40.3225 103.335 40.3225H104.815C105.054 40.3225 105.197 40.2281 105.197 39.9448V37.0646H107.155L108.492 39.9448C108.54 40.0392 108.587 40.1336 108.683 40.2281C108.778 40.3225 108.874 40.3225 109.017 40.3225H110.641C110.736 40.3225 110.784 40.2753 110.832 40.2281C110.832 40.0864 110.832 39.992 110.784 39.8976ZM108.492 34.2788C108.492 34.5149 108.444 34.7038 108.301 34.7982C108.158 34.9399 107.967 34.9871 107.776 34.9871H105.149V31.8708H107.776C108.014 31.8708 108.205 31.918 108.301 32.0597C108.444 32.2013 108.492 32.3902 108.492 32.5791V34.2788ZM119.904 30.0294C119.857 29.9822 119.761 29.935 119.666 29.935H118.042C117.851 29.935 117.708 29.9822 117.66 30.0294C117.565 30.1238 117.517 30.171 117.469 30.3127L115.702 34.1372H115.559L113.792 30.3127C113.745 30.2183 113.697 30.1238 113.601 30.0294C113.506 29.9822 113.41 29.935 113.219 29.935H111.596C111.5 29.935 111.405 29.9822 111.357 30.0294C111.309 30.1238 111.309 30.171 111.357 30.3127L114.556 36.7341V39.8976C114.556 40.1336 114.652 40.2753 114.938 40.2753H116.419C116.657 40.2753 116.801 40.1808 116.801 39.8976V36.7341L120 30.3127C119.952 30.2183 119.952 30.1238 119.904 30.0294Z" fill="#FEFEFE"/>
<path d="M65.8018 16.0535H59.2598C59.0211 16.0535 58.8778 16.1479 58.8778 16.4312V26.016C58.8778 26.2521 58.9733 26.3938 59.2598 26.3938H60.7402C60.9789 26.3938 61.1222 26.2521 61.1222 26.016V22.5693H64.1783C64.417 22.5693 64.5603 22.4276 64.5603 22.1915V20.9167C64.5603 20.6806 64.4648 20.539 64.1783 20.539H61.1222V18.0365H65.8018C66.0406 18.0365 66.1838 17.8949 66.1838 17.6588V16.4312C66.1361 16.1951 66.0406 16.0535 65.8018 16.0535ZM73.0123 15.9118H69.3832C67.8552 15.9118 67.0911 16.6673 67.0911 18.1782V24.2218C67.0911 25.7327 67.8552 26.4882 69.3832 26.4882H73.0123C74.5404 26.4882 75.3044 25.7327 75.3044 24.2218V18.2254C75.3044 16.6673 74.5404 15.9118 73.0123 15.9118ZM73.0601 23.7969C73.0601 24.033 73.0123 24.2218 72.8691 24.3163C72.7258 24.4579 72.5348 24.5051 72.3438 24.5051H70.0517C69.813 24.5051 69.6697 24.4579 69.5265 24.3163C69.3832 24.1746 69.3355 23.9857 69.3355 23.7969V18.6503C69.3355 18.4143 69.431 18.2254 69.5265 18.131C69.6697 17.9893 69.8607 17.9421 70.0517 17.9421H72.3438C72.5826 17.9421 72.7736 18.0365 72.8691 18.131C73.0123 18.2726 73.0601 18.4615 73.0601 18.6503V23.7969ZM83.2312 15.9118H79.6021C78.074 15.9118 77.31 16.6673 77.31 18.1782V24.2218C77.31 25.7327 78.074 26.4882 79.6021 26.4882H83.2312C84.7593 26.4882 85.5233 25.7327 85.5233 24.2218V18.2254C85.5233 16.6673 84.7593 15.9118 83.2312 15.9118ZM83.2789 23.7969C83.2789 24.033 83.1834 24.2218 83.0879 24.3163C82.9447 24.4579 82.7537 24.5051 82.5627 24.5051H80.2706C80.0318 24.5051 79.8408 24.4579 79.7453 24.3163C79.6021 24.1746 79.5543 23.9857 79.5543 23.7969V18.6503C79.5543 18.4143 79.6021 18.2254 79.7453 18.131C79.8886 17.9893 80.0796 17.9421 80.2706 17.9421H82.5627C82.8014 17.9421 82.9447 18.0365 83.0879 18.131C83.2312 18.2726 83.2789 18.4615 83.2789 18.6503V23.7969ZM93.4023 16.0535H87.9586C87.7199 16.0535 87.5766 16.1479 87.5766 16.4312V26.016C87.5766 26.2521 87.6721 26.3938 87.9586 26.3938H93.4023C94.9304 26.3938 95.6944 25.6383 95.6944 24.1274V18.367C95.6944 16.8089 94.9304 16.0535 93.4023 16.0535ZM93.4501 23.6552C93.4501 23.8913 93.4023 24.0802 93.2591 24.1746C93.1158 24.3163 92.9248 24.3635 92.7338 24.3635H89.8209V18.0365H92.7338C92.9725 18.0365 93.1636 18.0837 93.2591 18.2254C93.4023 18.367 93.4501 18.5559 93.4501 18.7448V23.6552Z" fill="#FEFEFE"/>
<path d="M106.534 8.49889C106.486 8.26281 106.391 8.07394 106.248 7.88508C106.104 7.74343 105.961 7.55457 105.722 7.46013C105.531 7.31849 105.292 7.22405 105.006 7.12962L101.711 5.902C101.52 5.80757 101.377 5.76036 101.329 5.66592C101.234 5.57149 101.234 5.42984 101.234 5.24098V4.81604C101.234 4.57996 101.329 4.43831 101.425 4.29666C101.568 4.15501 101.759 4.10779 101.95 4.10779H103.526C103.764 4.10779 103.955 4.20223 104.051 4.29666C104.194 4.43831 104.242 4.62717 104.242 4.81604V5.33541C104.242 5.57149 104.337 5.71314 104.624 5.71314H106.104C106.343 5.71314 106.486 5.57149 106.486 5.33541V4.39109C106.486 2.88018 105.722 2.12472 104.194 2.12472H101.281C99.7533 2.12472 98.9893 2.88018 98.9893 4.39109V5.42984C98.9893 5.76036 99.037 5.99644 99.0848 6.23252C99.1803 6.4686 99.228 6.65746 99.3713 6.84633C99.5145 6.98797 99.7055 7.17684 99.8965 7.27127C100.088 7.41292 100.326 7.50735 100.613 7.60178L103.908 8.8294C104.099 8.92383 104.242 8.97105 104.29 9.06548C104.385 9.15991 104.385 9.30156 104.385 9.49042V9.91537C104.385 10.1514 104.337 10.2931 104.194 10.4347C104.051 10.5764 103.86 10.6236 103.669 10.6236H101.807C101.568 10.6236 101.425 10.5292 101.281 10.4347C101.138 10.2931 101.09 10.1042 101.09 9.91537V9.39599C101.09 9.15991 100.995 9.01826 100.708 9.01826H99.228C98.9893 9.01826 98.846 9.15991 98.846 9.39599V10.3403C98.846 11.8512 99.61 12.6067 101.138 12.6067H104.337C105.866 12.6067 106.63 11.8512 106.63 10.3403V9.30156C106.63 9.01826 106.63 8.73497 106.534 8.49889ZM97.4135 10.482H92.6383V8.21559H96.1242C96.3629 8.21559 96.5062 8.12116 96.5062 7.83786V6.61025C96.5062 6.37417 96.4107 6.23252 96.1242 6.23252H92.6383V4.15501H97.2702C97.509 4.15501 97.6522 4.06058 97.6522 3.77728V2.54967C97.6522 2.31359 97.5567 2.17194 97.2702 2.17194H90.8237C90.585 2.17194 90.4417 2.26637 90.4417 2.54967V12.0873C90.4417 12.3234 90.5372 12.465 90.8237 12.465H97.4135C97.6522 12.465 97.7955 12.3706 97.7955 12.0873V10.8597C97.7955 10.6236 97.6522 10.482 97.4135 10.482ZM87.8154 2.17194H86.3351C86.0963 2.17194 85.953 2.26637 85.953 2.54967V8.59332H85.8098L82.7537 2.54967C82.7059 2.45523 82.6104 2.3608 82.5627 2.26637C82.4672 2.17194 82.3717 2.17194 82.2284 2.17194H80.3661C80.1273 2.17194 79.9841 2.26637 79.9841 2.54967V12.0873C79.9841 12.3234 80.0796 12.465 80.3661 12.465H81.8464C82.0852 12.465 82.2284 12.3706 82.2284 12.0873V6.09087H82.3717L85.4278 12.1345C85.4755 12.229 85.571 12.3234 85.6188 12.4178C85.7143 12.5122 85.8098 12.5122 85.953 12.5122H87.8154C88.0541 12.5122 88.1974 12.4178 88.1974 12.1345V2.54967C88.1974 2.31359 88.0541 2.17194 87.8154 2.17194ZM78.3605 2.17194H71.341C71.1023 2.17194 70.959 2.26637 70.959 2.54967V3.77728C70.959 4.01336 71.0545 4.15501 71.341 4.15501H73.7286V12.0873C73.7286 12.3234 73.8719 12.465 74.1106 12.465H75.5909C75.8297 12.465 75.9729 12.3706 75.9729 12.0873V4.15501H78.3605C78.5993 4.15501 78.7425 4.06058 78.7425 3.77728V2.54967C78.7425 2.31359 78.5993 2.17194 78.3605 2.17194ZM69.3832 2.17194H67.9029C67.6641 2.17194 67.5209 2.26637 67.5209 2.54967V12.0873C67.5209 12.3234 67.6164 12.465 67.9029 12.465H69.3832C69.622 12.465 69.7652 12.3706 69.7652 12.0873V2.54967C69.7175 2.31359 69.622 2.17194 69.3832 2.17194ZM65.8018 2.17194H59.2598C59.0211 2.17194 58.8778 2.26637 58.8778 2.54967V12.0873C58.8778 12.3234 58.9733 12.465 59.2598 12.465H60.7402C60.9789 12.465 61.1222 12.3706 61.1222 12.0873V8.64053H64.1783C64.417 8.64053 64.5603 8.5461 64.5603 8.26281V7.03519C64.5603 6.79911 64.4648 6.65746 64.1783 6.65746H61.1222V4.15501H65.8018C66.0406 4.15501 66.1838 4.06058 66.1838 3.77728V2.54967C66.1361 2.31359 66.0406 2.17194 65.8018 2.17194ZM115.702 8.49889C115.607 8.26281 115.511 8.07394 115.368 7.88508C115.225 7.74343 115.082 7.55457 114.843 7.46013C114.652 7.31849 114.365 7.22405 114.127 7.12962L110.832 5.902C110.641 5.80757 110.497 5.76036 110.45 5.66592C110.354 5.57149 110.354 5.42984 110.354 5.24098V4.81604C110.354 4.57996 110.402 4.43831 110.545 4.29666C110.688 4.15501 110.879 4.10779 111.07 4.10779H112.646C112.885 4.10779 113.076 4.20223 113.172 4.29666C113.315 4.43831 113.363 4.62717 113.363 4.81604V5.33541C113.363 5.57149 113.506 5.71314 113.745 5.71314H115.225C115.464 5.71314 115.607 5.57149 115.607 5.33541V4.39109C115.607 2.88018 114.843 2.12472 113.315 2.12472H110.402C108.874 2.12472 108.11 2.88018 108.11 4.39109V5.42984C108.11 5.76036 108.158 5.99644 108.205 6.23252C108.253 6.4686 108.349 6.65746 108.492 6.84633C108.635 6.98797 108.778 7.17684 109.017 7.27127C109.208 7.41292 109.495 7.50735 109.733 7.60178L113.028 8.8294C113.219 8.92383 113.363 8.97105 113.41 9.06548C113.506 9.15991 113.506 9.30156 113.506 9.49042V9.91537C113.506 10.1514 113.458 10.2931 113.315 10.4347C113.172 10.5764 112.98 10.6236 112.789 10.6236H110.927C110.688 10.6236 110.497 10.5292 110.402 10.4347C110.259 10.2931 110.211 10.1042 110.211 9.91537V9.39599C110.211 9.15991 110.068 9.01826 109.829 9.01826H108.349C108.11 9.01826 107.967 9.15991 107.967 9.39599V10.3403C107.967 11.8512 108.731 12.6067 110.259 12.6067H113.458C114.986 12.6067 115.75 11.8512 115.75 10.3403V9.30156C115.798 9.01826 115.75 8.73497 115.702 8.49889Z" fill="#FEFEFE"/>
</svg>
