<svg width="25" height="24" viewBox="0 0 25 24" fill="none" xmlns="http://www.w3.org/2000/svg">
<path d="M0.8125 1.6875H4.5625L7.375 17.625H22.375M7.375 13.875H21.9906C22.099 13.8751 22.2041 13.8376 22.288 13.7689C22.3718 13.7002 22.4293 13.6045 22.4506 13.4982L24.1381 5.06074C24.1517 4.99271 24.15 4.9225 24.1332 4.85518C24.1164 4.78786 24.0849 4.72511 24.0409 4.67147C23.9969 4.61782 23.9415 4.57461 23.8788 4.54496C23.816 4.51531 23.7475 4.49995 23.6781 4.5H5.5M9.25 21.375C9.25 21.8928 8.83027 22.3125 8.3125 22.3125C7.79473 22.3125 7.375 21.8928 7.375 21.375C7.375 20.8572 7.79473 20.4375 8.3125 20.4375C8.83027 20.4375 9.25 20.8572 9.25 21.375ZM22.375 21.375C22.375 21.8928 21.9553 22.3125 21.4375 22.3125C20.9197 22.3125 20.5 21.8928 20.5 21.375C20.5 20.8572 20.9197 20.4375 21.4375 20.4375C21.9553 20.4375 22.375 20.8572 22.375 21.375Z" stroke="#FEFEFE" stroke-width="1.5" stroke-linecap="round" stroke-linejoin="round"/>
</svg>
