<svg width="15" height="13" viewBox="0 0 15 13" fill="none" xmlns="http://www.w3.org/2000/svg">
<path d="M0.545372 6.26225L3.76404 7.46242L5.01877 11.4994C5.07332 11.7721 5.40064 11.8267 5.61886 11.663L7.41912 10.1901C7.58278 10.0264 7.85555 10.0264 8.07377 10.1901L11.2924 12.5359C11.5106 12.6996 11.838 12.5904 11.8925 12.3177L14.2929 0.861449C14.3474 0.588682 14.0747 0.315917 13.8019 0.425024L0.545372 5.55305C0.218051 5.66216 0.218051 6.15314 0.545372 6.26225ZM4.85511 6.86233L11.1833 2.98904C11.2924 2.93448 11.4015 3.09814 11.2924 3.1527L6.10984 8.00796C5.94618 8.17162 5.78251 8.38983 5.78251 8.6626L5.61886 9.97188C5.61886 10.1355 5.34609 10.1901 5.29153 9.97188L4.63688 7.57153C4.47322 7.29876 4.58234 6.97144 4.85511 6.86233Z" fill="#FEFEFE"/>
</svg>
