<svg width="42" height="42" viewBox="0 0 24 24" fill="none" xmlns="http://www.w3.org/2000/svg">
<g clip-path="url(#clip0_313_491)">
<circle cx="12" cy="12" r="12" fill="#FEFEFE"/>
<path d="M18.169 15.1781C18.169 15.1233 18.119 15.1233 18.119 15.0685C17.9189 14.6301 17.4687 14.0822 16.8685 13.4795C16.5684 13.2055 16.4184 12.9863 16.3183 12.8767C16.1683 12.6575 16.1683 12.4932 16.2183 12.274C16.2683 12.1096 16.4684 11.8356 16.8185 11.3425C17.0186 11.0685 17.1186 10.9041 17.2687 10.7397C18.0189 9.64384 18.3691 8.9315 18.269 8.60274L18.219 8.54795C18.169 8.49315 18.119 8.43836 18.0189 8.43836C17.9189 8.38356 17.7689 8.38356 17.6188 8.43836H15.7181C15.6681 8.43836 15.6681 8.43836 15.568 8.43836C15.518 8.43836 15.468 8.43836 15.468 8.43836H15.418H15.368L15.3179 8.49315C15.2679 8.54794 15.2679 8.54794 15.2679 8.60274C15.0678 9.20548 14.8178 9.69863 14.5677 10.2466C14.4176 10.5205 14.2676 10.7945 14.1175 11.0137C13.9674 11.2329 13.8674 11.3973 13.7674 11.5068C13.6673 11.6164 13.5673 11.6712 13.5173 11.7808C13.4672 11.8356 13.3672 11.8904 13.3672 11.8356C13.3172 11.8356 13.2672 11.8356 13.2672 11.7808C13.2172 11.726 13.1671 11.6712 13.1171 11.6164C13.0671 11.5616 13.0671 11.4521 13.0171 11.3425C13.0171 11.2329 13.0171 11.1233 13.0171 11.0685C13.0171 11.0137 13.0171 10.8493 13.0171 10.7397C13.0171 10.5753 13.0171 10.4658 13.0171 10.411C13.0171 10.2466 13.0171 10.0274 13.0171 9.80822C13.0171 9.58904 13.0171 9.42466 13.0171 9.31507C13.0171 9.20548 13.0171 9.04109 13.0171 8.93151C13.0171 8.76712 13.0171 8.65753 13.0171 8.60274C13.0171 8.54794 12.9671 8.43835 12.9671 8.38356C12.9171 8.32877 12.867 8.27397 12.817 8.21917C12.767 8.16438 12.667 8.16438 12.6169 8.10959C12.3668 8.05479 12.0667 8 11.7166 8C10.9163 8 10.3661 8.0548 10.166 8.16439C10.066 8.21918 9.96595 8.27397 9.91593 8.38356C9.81589 8.49315 9.81589 8.54795 9.86591 8.54795C10.116 8.60274 10.3161 8.71232 10.4161 8.87671L10.4661 8.9863C10.5162 9.0411 10.5161 9.15068 10.5662 9.31507C10.6162 9.47945 10.6162 9.64383 10.6162 9.86301C10.6162 10.1918 10.6162 10.5205 10.6162 10.7397C10.6162 11.0137 10.5662 11.1781 10.5662 11.3425C10.5662 11.5068 10.5162 11.6164 10.4661 11.6712C10.4161 11.7808 10.4161 11.8356 10.3661 11.8356C10.3661 11.8356 10.3661 11.8904 10.3161 11.8904C10.2661 11.8904 10.216 11.9452 10.116 11.9452C10.066 11.9452 9.96595 11.8904 9.91593 11.8356C9.81589 11.7808 9.71586 11.6712 9.66584 11.5616C9.5658 11.4521 9.46576 11.2877 9.36572 11.0685C9.26568 10.8493 9.11562 10.6301 9.01558 10.3014L8.91556 10.0822C8.86554 9.97261 8.7655 9.75342 8.66546 9.47945C8.56543 9.20548 8.46538 8.9863 8.36535 8.71233C8.31533 8.60274 8.26532 8.54794 8.2153 8.49315H8.16528C8.16528 8.49315 8.11525 8.43836 8.06523 8.43836C8.01521 8.43836 7.9652 8.38356 7.91518 8.38356H6.11451C5.91443 8.38356 5.8144 8.43835 5.76438 8.49315L5.71436 8.54795C5.71436 8.54795 5.71436 8.60274 5.71436 8.65753C5.71436 8.71233 5.71436 8.76712 5.76438 8.87671C6.01447 9.53424 6.31458 10.1918 6.61469 10.8493C6.91481 11.4521 7.21492 12 7.415 12.3836C7.66509 12.7671 7.86516 13.1507 8.11525 13.4795C8.36535 13.8082 8.5154 14.0274 8.56542 14.137C8.66546 14.2466 8.71547 14.3014 8.76549 14.3562L8.91556 14.5205C9.01559 14.6301 9.16565 14.7945 9.36572 14.9589C9.5658 15.1233 9.81589 15.2877 10.066 15.4521C10.3161 15.6164 10.6162 15.726 10.9163 15.8356C11.2664 15.9452 11.5665 16 11.8667 15.9452H12.6169C12.767 15.9452 12.867 15.8904 12.9671 15.7808L13.0171 15.726C13.0171 15.6712 13.0671 15.6712 13.0671 15.6164C13.0671 15.5616 13.0671 15.5069 13.0671 15.3973C13.0671 15.1781 13.0671 15.0137 13.1171 14.8493C13.1671 14.6849 13.1671 14.5753 13.2172 14.4658C13.2672 14.3562 13.3172 14.3014 13.3672 14.2466C13.4172 14.1918 13.4673 14.137 13.4673 14.137H13.5173C13.6173 14.0822 13.7674 14.137 13.8674 14.2466C14.0175 14.3562 14.1675 14.5206 14.2675 14.6849C14.3676 14.8493 14.5177 15.0137 14.7177 15.2329C14.9178 15.4521 15.0679 15.6164 15.1679 15.6712L15.3179 15.7808C15.418 15.8356 15.518 15.8904 15.6681 15.9452C15.8181 16 15.9182 16 16.0182 16L17.7188 15.9452C17.8689 15.9452 18.019 15.8904 18.119 15.8356C18.219 15.7808 18.269 15.726 18.269 15.6164C18.269 15.5616 18.269 15.4521 18.269 15.3973C18.169 15.2877 18.169 15.2329 18.169 15.1781Z" fill="#36393F"/>
</g>
<defs>
<clipPath id="clip0_313_491">
<rect width="42" height="42" fill="white"/>
</clipPath>
</defs>
</svg>
