<svg width="15" height="15" viewBox="0 0 15 15" fill="none" xmlns="http://www.w3.org/2000/svg">
<path d="M12.5488 2.44355C11.1658 1.06543 9.32195 0.299805 7.37561 0.299805C3.32927 0.299805 0.0512187 3.56647 0.0512187 7.59876C0.0512187 8.8748 0.409756 10.1508 1.02439 11.2227L0 14.9998L3.89268 13.979C4.96829 14.5404 6.14634 14.8467 7.37561 14.8467C11.4219 14.8467 14.7 11.58 14.7 7.54772C14.6488 5.65918 13.9317 3.82168 12.5488 2.44355ZM10.9098 10.2019C10.7561 10.6102 10.039 11.0186 9.68048 11.0696C9.37317 11.1206 8.96341 11.1206 8.55366 11.0186C8.29756 10.9165 7.93902 10.8144 7.52927 10.6102C5.68536 9.8446 4.50732 8.0071 4.40488 7.85397C4.30244 7.75189 3.63659 6.88418 3.63659 5.96543C3.63659 5.04668 4.09756 4.63835 4.25122 4.43418C4.40488 4.23001 4.60975 4.23001 4.76341 4.23001C4.86585 4.23001 5.01951 4.23001 5.12195 4.23001C5.22439 4.23001 5.37805 4.17897 5.53171 4.53626C5.68536 4.89355 6.0439 5.8123 6.09512 5.86335C6.14634 5.96543 6.14634 6.06751 6.09512 6.1696C6.0439 6.27168 5.99268 6.37376 5.89024 6.47585C5.7878 6.57793 5.68536 6.73105 5.63414 6.7821C5.5317 6.88418 5.42927 6.98626 5.53171 7.13939C5.63414 7.34355 5.99268 7.90501 6.5561 8.41543C7.27317 9.02793 7.83658 9.2321 8.04146 9.33418C8.24634 9.43626 8.34878 9.38522 8.45122 9.28314C8.55365 9.18105 8.91219 8.77272 9.01463 8.56856C9.11707 8.36439 9.27073 8.41543 9.42439 8.46647C9.57805 8.51751 10.5 8.97689 10.6537 9.07897C10.8585 9.18106 10.961 9.2321 11.0122 9.28314C11.0634 9.43626 11.0634 9.79355 10.9098 10.2019Z" fill="#FEFEFE"/>
</svg>
