<svg width="42" height="42" viewBox="0 0 24 24" fill="none" xmlns="http://www.w3.org/2000/svg">
<g clip-path="url(#clip0_313_497)">
<circle cx="12" cy="12" r="12" fill="#FEFEFE"/>
<path d="M17.228 11.3478C17.228 11.1151 17.1892 10.8435 17.1892 10.5332C17.1504 10.2229 17.1116 9.91263 17.0728 9.64111C16.9952 9.33081 16.8789 9.09809 16.6462 8.90415C16.4522 8.71021 16.1807 8.59384 15.9092 8.55505C15.0171 8.43869 13.6983 8.3999 11.914 8.3999C10.1298 8.3999 8.77222 8.43869 7.91888 8.55505C7.64737 8.59384 7.37586 8.71021 7.18192 8.90415C6.98798 9.09809 6.83282 9.33081 6.75525 9.64111C6.67767 9.91263 6.63889 10.1841 6.63889 10.5332C6.6001 10.8435 6.6001 11.1151 6.6001 11.3478C6.6001 11.5805 6.6001 11.852 6.6001 12.2399C6.6001 12.6278 6.6001 12.9381 6.6001 13.132C6.6001 13.3647 6.63889 13.6363 6.63889 13.9466C6.67768 14.2569 6.71646 14.5672 6.75525 14.8387C6.83282 15.149 6.94919 15.3817 7.18192 15.5757C7.37586 15.7696 7.64737 15.886 7.91888 15.9247C8.811 16.0411 10.1298 16.0799 11.914 16.0799C13.6983 16.0799 15.0559 16.0411 15.9092 15.9247C16.1807 15.886 16.4522 15.7696 16.6462 15.5757C16.8401 15.3817 16.9952 15.149 17.0728 14.8387C17.1504 14.5672 17.1892 14.2957 17.1892 13.9466C17.228 13.6363 17.228 13.3647 17.228 13.132C17.228 12.8993 17.228 12.6278 17.228 12.2399C17.228 11.852 17.228 11.5417 17.228 11.3478ZM13.9698 12.5502L10.9056 14.4508C10.8668 14.4896 10.7892 14.5284 10.7116 14.5284C10.634 14.5284 10.5953 14.5284 10.5177 14.4896C10.4013 14.412 10.3237 14.2957 10.3237 14.1405V10.3005C10.3237 10.1454 10.4013 10.029 10.5177 9.95142C10.634 9.87384 10.7892 9.87384 10.9056 9.95142L13.9698 11.852C14.0862 11.9296 14.1637 12.046 14.1637 12.1623C14.1637 12.2787 14.0862 12.4726 13.9698 12.5502Z" fill="#36393F"/>
</g>
<defs>
<clipPath id="clip0_313_497">
<rect width="42" height="42" fill="white"/>
</clipPath>
</defs>
</svg>
